<svg xmlns="http://www.w3.org/2000/svg" width="1000" height="1000">
  <style>
    @media (prefers-color-scheme:dark){#light-icon{display:none}#dark-icon{display:inline}}
  </style>
  <svg xmlns="http://www.w3.org/2000/svg" xmlns:xlink="http://www.w3.org/1999/xlink" width="1000" height="1000">
    <g clip-path="url(#SvgjsClipPath1234)">
   
      <svg xmlns="http://www.w3.org/2000/svg" xmlns:xlink="http://www.w3.org/1999/xlink" width="2048" height="2048" transform="scale(.48828)">
        <svg xmlns="http://www.w3.org/2000/svg" xmlns:svg="http://www.w3.org/2000/svg" id="svg1" width="2048" height="2048" version="1.1" viewBox="0 0 2048 2048">
          <defs id="defs1">
            <clipPath id="SvgjsClipPath1234">
              <rect width="1000" height="1000" rx="350" ry="350"/>
            </clipPath>
          </defs>
          <g id="layer1">
            <path id="rect2" fill="#eee" fill-opacity="1" d="M-22.627-39.598h2104.35v2115.663H-22.627z"/>
            <circle id="path2" cx="1024" cy="1024" r="989.949" fill="#f9f9f9" fill-opacity="1"/>
            <path id="path1" fill="#000" stroke-width="5.361" d="M964.009 1782.998c-103.276-12.013-195.981-49.85-284.069-115.94-84.857-63.667-160.09-169.04-192.426-269.52-22.738-70.654-24.627-93.248-27.234-325.699l-2.54-226.514h50.851c41.423 0 51.453 1.571 54.104 8.48 1.79 4.664 3.255 103.126 3.255 218.803 0 194.224.836 213.581 10.938 252.883 48.516 188.773 209.396 330.11 398.226 349.85 140.647 14.703 268.568-29.172 369.696-126.803 63.252-61.065 101.934-129.098 125.109-220.044l12.813-50.28V373.53H994.854v364.283l103.204 101.54 103.205 101.54 1.436-131.87 1.436-131.871-15.579-16.438c-35.198-37.139-42.743-83.037-20.8-126.549 9.688-19.214 18.198-26.989 43.241-39.505 29.342-14.665 32.77-15.216 58.197-9.347 14.86 3.43 34.056 11.249 42.66 17.375 46.696 33.251 49.576 122.434 5.248 162.524-11.221 10.148-11.294 12.095-11.373 305.594-.086 325.869-.828 334.655-33.42 396.746-21.893 41.71-77.94 97.842-119.297 119.48-84.232 44.069-193.215 46.15-281.468 5.378-71.138-32.866-133.07-106.816-153.54-183.333-4.605-17.209-7.195-58.59-7.236-115.576l-.064-88.77-24.449-17.233c-30.615-21.58-41.882-46.48-38.653-85.42 4.009-48.34 38.94-81.695 85.553-81.695 49.959 0 85.398 30.141 93.262 79.318 3.31 20.696 12.054 30.649 107.464 122.32l103.862 99.789v95.906c0 57.872 2.047 95.906 5.16 95.906 17.537 0 68.044-25.641 90.79-46.092 52.283-47.006 64.486-80.78 68.658-190.016l2.977-77.95-158.704-155.267-158.703-155.266 1.193-262.704 1.193-262.703 349.976-1.38 349.976-1.379-1.565 526.786-1.565 526.787-12.36 42.686c-51.05 176.29-145.823 295.109-296.633 371.89-96.292 49.026-201.43 67.094-314.128 53.985zm-26.925-447.132c-.717-53.592-2.365-65.03-10.411-72.28-5.257-4.738-33.36-31.422-62.449-59.3l-52.89-50.687 2.712 58.975c3.247 70.604 12.694 100.132 43.083 134.656 23.019 26.15 66.33 57.129 75.567 54.05 3.087-1.029 4.89-27.92 4.388-65.414z"/>
          </g>
        </svg>
      </svg>
    </g>
  </svg>
</svg>