
<svg xmlns="http://www.w3.org/2000/svg" xml:space="preserve" style="fill-rule:evenodd;clip-rule:evenodd;stroke-linejoin:round;stroke-miterlimit:2" viewBox="0 0 1761 342"><g transform="translate(-.739 -1.876)"><path d="M.739 1.876h1760.28v341.153H.739z" style="fill:none"/><clipPath id="a"><path d="M.739 1.876h1760.28v341.153H.739z"/></clipPath><g clip-path="url(#a)"><path d="M0 0h2084.49v341.853H0z" style="fill:none" transform="translate(.739 .876)"/><g transform="translate(.739 .876)"><clipPath id="b"><path d="M0 0h2084.49v341.853H0z"/></clipPath><g clip-path="url(#b)"><path d="M-1254.57-1287.34h4583.33v2916.67h-4583.33z" style="fill:none"/><path d="m441.619 105.765-60.045 134.719h31.946l12.007-28.869h58.091l-6.043-14.841a14.184 14.184 0 0 0-13.133-8.829h-29.07l21.439-51.56 43.121 104.099h32.718l-60.239-134.719h-30.792ZM629.182 172.355c-4.619-2.822-9.719-5.067-15.299-6.738a272.216 272.216 0 0 0-16.744-4.426c-5.581-1.28-10.68-2.564-15.299-3.848-4.62-1.28-8.342-2.984-11.165-5.1-2.822-2.116-4.235-4.906-4.235-8.374 0-2.948.836-5.548 2.503-7.793 1.668-2.241 4.429-4.07 8.277-5.483 3.849-1.41 8.787-2.116 14.819-2.116 6.029 0 12.186.864 18.477 2.596 6.283 1.733 12.57 4.397 18.856 7.987l9.626-23.669c-6.29-3.978-13.538-6.961-21.747-8.952a106.034 106.034 0 0 0-25.018-2.98c-12.703 0-23.261 1.894-31.66 5.673-8.406 3.788-14.693 8.855-18.86 15.206-4.171 6.348-6.255 13.374-6.255 21.073 0 7.187 1.445 13.087 4.329 17.706 2.887 4.616 6.638 8.342 11.261 11.161 4.615 2.826 9.718 5.135 15.299 6.928a177.51 177.51 0 0 0 16.741 4.523c5.583 1.223 10.683 2.503 15.302 3.851 4.619 1.345 8.335 3.077 11.161 5.197 2.819 2.116 4.235 4.97 4.235 8.56 0 2.826-.896 5.326-2.693 7.51-1.8 2.181-4.59 3.88-8.374 5.096-3.787 1.223-8.758 1.833-14.915 1.833-8.08 0-16.067-1.316-23.96-3.949-7.89-2.629-14.722-5.992-20.496-10.102l-10.583 23.479c6.028 4.619 13.983 8.371 23.863 11.258 9.877 2.886 20.205 4.332 30.986 4.332 12.824 0 23.443-1.926 31.849-5.774 8.4-3.852 14.722-8.919 18.958-15.206 4.231-6.283 6.351-13.212 6.351-20.783 0-7.057-1.445-12.896-4.332-17.515-2.887-4.619-6.639-8.338-11.258-11.161" style="fill:#fff;fill-rule:nonzero" transform="matrix(.9351 0 0 .9351 23.805 11.81)"/><path d="M660.449 105.764h31.179v134.719h-31.179z" style="fill:#fff" transform="matrix(.9351 0 0 .9351 23.805 11.81)"/><path d="M751.961 141.947c3.848-3.851 8.403-6.799 13.664-8.851 5.258-2.051 11.032-3.08 17.318-3.08 6.671 0 12.829 1.316 18.477 3.945 5.645 2.632 10.777 6.577 15.399 11.835l20.012-18.473c-6.416-7.826-14.338-13.765-23.766-17.806-9.429-4.039-19.987-6.061-31.66-6.061-10.522 0-20.209 1.703-29.06 5.099-8.855 3.404-16.583 8.245-23.189 14.532-6.613 6.287-11.741 13.664-15.396 22.131-3.658 8.467-5.483 17.77-5.483 27.905 0 10.139 1.825 19.438 5.483 27.909 3.655 8.463 8.754 15.844 15.299 22.131 6.542 6.287 14.27 11.132 23.189 14.528 8.916 3.4 18.574 5.103 28.967 5.103 11.802 0 22.421-2.055 31.85-6.161 9.428-4.103 17.35-10.07 23.766-17.896l-20.012-18.476c-4.622 5.39-9.754 9.399-15.399 12.028-5.648 2.629-11.806 3.945-18.477 3.945-6.286 0-12.06-1.026-17.318-3.081-5.261-2.051-9.816-5.003-13.664-8.851-3.851-3.848-6.832-8.402-8.947-13.663-2.12-5.261-3.178-11.096-3.178-17.516 0-6.412 1.058-12.247 3.178-17.512 2.115-5.261 5.096-9.815 8.947-13.664M922.128 205.567l-58.492-99.803h-11.738v134.719h13.664V133.346l52.923 90.009h6.735l52.926-90.623v107.751h13.668V105.764h-11.742l-57.944 99.803Z" style="fill:#fff;fill-rule:nonzero" transform="matrix(.9351 0 0 .9351 23.805 11.81)"/><path d="M1020.6 139.446h13.664v101.037H1020.6z" style="fill:#fff" transform="matrix(.9351 0 0 .9351 23.805 11.81)"/><path d="M1027.53 97.683c-2.82 0-5.2.933-7.12 2.79-1.92 1.862-2.89 4.139-2.89 6.832 0 2.694.97 5.003 2.89 6.929 1.92 1.926 4.3 2.887 7.12 2.887 2.95 0 5.35-.961 7.22-2.887 1.86-1.926 2.79-4.296 2.79-7.119 0-2.697-.96-4.938-2.89-6.738-1.92-1.797-4.3-2.694-7.12-2.694M1132.95 143.197c-6.23-3.142-13.44-4.712-21.65-4.712-9.75 0-18.16 2.083-25.21 6.254-5.68 3.357-10.1 7.75-13.28 13.144v-18.437h-13.09v101.036h13.66v-53.116c0-7.696 1.45-14.274 4.34-19.725 2.88-5.451 6.99-9.625 12.31-12.512 5.33-2.887 11.58-4.329 18.77-4.329 9.62 0 17.09 2.725 22.42 8.177 5.32 5.458 7.98 13.506 7.98 24.153v57.352h13.67v-58.697c0-9.751-1.77-17.831-5.29-24.25-3.53-6.412-8.41-11.193-14.63-14.338M1187.28 168.505c3.08-5.774 7.38-10.264 12.89-13.47 5.52-3.207 11.74-4.813 18.67-4.813 7.06 0 13.28 1.606 18.67 4.813 5.39 3.206 9.65 7.667 12.8 13.373 2.55 4.63 4.01 9.812 4.49 15.493h-71.9c.5-5.652 1.93-10.802 4.38-15.396m56.87-23.577c-7.38-4.296-15.81-6.444-25.31-6.444-9.36 0-17.8 2.213-25.3 6.638-7.51 4.426-13.41 10.49-17.71 18.186-4.3 7.7-6.45 16.551-6.45 26.56 0 10.006 2.25 18.893 6.74 26.654 4.49 7.764 10.71 13.857 18.67 18.283 7.95 4.425 17.19 6.638 27.71 6.638 8.08 0 15.49-1.41 22.23-4.232 6.73-2.822 12.34-6.929 16.84-12.319l-7.7-8.851c-3.85 4.49-8.44 7.825-13.76 10.009-5.33 2.181-11.07 3.268-17.23 3.268-7.82 0-14.78-1.632-20.88-4.907-6.09-3.27-10.84-7.821-14.24-13.663-2.84-4.881-4.43-10.458-4.89-16.648h84.85c0-.767.04-1.506.1-2.213.07-.703.1-1.377.1-2.019 0-10.135-2.12-19.082-6.35-26.847-4.24-7.76-10.04-13.789-17.42-18.093M1298.03 158.962v-19.517h-13.09v101.037h13.67v-51.575c0-11.931 3.01-21.137 9.05-27.618 6.02-6.477 14.36-9.722 25.01-9.722.51 0 1.03.035 1.54.1.52.065 1.03.093 1.54.093v-13.276c-9.88 0-18.15 2.019-24.82 6.061-5.72 3.46-10.01 8.273-12.9 14.417M1453.51 105.765l-51.95 117.24-51.59-117.24h-15.4l59.67 134.719h14.05l59.65-134.719h-14.43ZM1522.7 225.375c-5.58 3.529-12.22 5.294-19.92 5.294-8.09 0-14.37-1.732-18.86-5.197-4.49-3.464-6.74-8.083-6.74-13.857 0-5.132 1.9-9.432 5.68-12.893 3.79-3.464 10.55-5.196 20.31-5.196h31.75v16.55c-2.57 6.671-6.64 11.771-12.22 15.299m-15.11-86.892c-7.95 0-15.52 1.187-22.71 3.561-7.18 2.374-13.34 5.742-18.47 10.103l6.16 10.199c4.1-3.59 9.1-6.477 15.01-8.661 5.9-2.176 12.12-3.27 18.67-3.27 9.49 0 16.64 2.309 21.45 6.928 4.82 4.62 7.22 11.229 7.22 19.822v6.161h-32.14c-9.62 0-17.29 1.316-23 3.945-5.71 2.629-9.81 6.093-12.31 10.39-2.51 4.3-3.76 9.08-3.76 14.341 0 5.771 1.48 10.87 4.43 15.296 2.95 4.429 7.21 7.893 12.8 10.393 5.58 2.503 12.15 3.755 19.73 3.755 9.62 0 17.61-1.991 23.96-5.968 4.64-2.908 8.25-6.556 10.87-10.906v15.913h13.09v-62.743c0-13.212-3.56-23.06-10.69-29.54-7.12-6.477-17.22-9.719-30.31-9.719" style="fill:#fff;fill-rule:nonzero" transform="matrix(.9351 0 0 .9351 23.805 11.81)"/><path d="M1573.51 97.684h13.664v142.799h-13.664z" style="fill:#fff" transform="matrix(.9351 0 0 .9351 23.805 11.81)"/><path d="M1690.42 192.369c0 7.696-1.38 14.309-4.14 19.821-2.76 5.52-6.73 9.723-11.93 12.606-5.2 2.891-11.33 4.333-18.38 4.333-9.62 0-17.1-2.726-22.42-8.181-5.32-5.451-7.99-13.567-7.99-24.344v-57.158h-13.66v58.697c0 9.622 1.76 17.645 5.29 24.057 3.53 6.416 8.5 11.225 14.92 14.431 6.41 3.21 13.92 4.813 22.51 4.813 8.98 0 16.84-2.084 23.58-6.255 5.43-3.36 9.66-7.843 12.8-13.337v18.631h13.08V139.446h-13.66v52.923ZM1739.79 168.505c3.08-5.774 7.38-10.264 12.9-13.47 5.51-3.207 11.73-4.813 18.66-4.813 7.06 0 13.28 1.606 18.67 4.813 5.39 3.206 9.65 7.667 12.8 13.373 2.55 4.63 4.01 9.812 4.49 15.493h-71.9c.5-5.652 1.93-10.802 4.38-15.396m74.29-5.484c-4.24-7.76-10.04-13.789-17.42-18.093-7.38-4.296-15.81-6.444-25.31-6.444-9.36 0-17.8 2.213-25.3 6.638-7.51 4.426-13.42 10.49-17.71 18.186-4.3 7.7-6.45 16.551-6.45 26.56 0 10.006 2.25 18.893 6.74 26.654 4.49 7.764 10.71 13.857 18.67 18.283 7.95 4.425 17.19 6.638 27.71 6.638 8.08 0 15.49-1.41 22.23-4.232 6.73-2.822 12.34-6.929 16.84-12.319l-7.7-8.851c-3.85 4.49-8.44 7.825-13.76 10.009-5.33 2.181-11.07 3.268-17.23 3.268-7.82 0-14.78-1.632-20.87-4.907-6.1-3.27-10.85-7.821-14.25-13.663-2.84-4.881-4.42-10.458-4.89-16.648h84.85c0-.767.04-1.506.1-2.213.07-.703.1-1.377.1-2.019 0-10.135-2.12-19.082-6.35-26.847" style="fill:#fff;fill-rule:nonzero" transform="matrix(.9351 0 0 .9351 23.805 11.81)"/><path d="M105.201 16.563h28.058v27.183h-28.058z" style="fill:url(#c)"/><path d="M105.201 298.25h28.058v27.179h-28.058z" style="fill:url(#d)"/><path d="M161.317 16.563h28.054v27.183h-28.054z" style="fill:url(#e)"/><path d="M161.317 298.25h28.054v27.179h-28.054z" style="fill:url(#f)"/><path d="M217.43 16.563h28.058v27.183H217.43z" style="fill:url(#g)"/><path d="M217.43 298.25h28.058v27.179H217.43z" style="fill:url(#h)"/><path d="M20.913 213.08h27.179v28.058H20.913z" style="fill:url(#i)"/><path d="M302.597 213.08h27.179v28.058h-27.179z" style="fill:url(#j)"/><path d="M20.913 156.967h27.179v28.058H20.913z" style="fill:url(#k)"/><path d="M302.597 156.967h27.179v28.058h-27.179z" style="fill:url(#l)"/><path d="M20.913 100.85h27.179v28.058H20.913z" style="fill:url(#m)"/><path d="M302.597 100.85h27.179v28.058h-27.179z" style="fill:url(#n)"/><path d="M87.492 55.43c-15.329 0-27.695 12.404-27.695 27.691V258.88c0 15.291 12.366 27.695 27.695 27.695h175.721c15.288 0 27.692-12.404 27.692-27.695V83.121c0-15.287-12.404-27.691-27.692-27.691H87.492Zm87.81 167.297-26.304-34.375h-26.3l52.604 70.241 52.742-70.241h-26.375l-26.367 34.375Zm32.49-86.95-12.363-19.988-14.945 24.029-2.271 3.634c-.925 1.554-1.917 3.112-2.846 4.666l-7.575-12.241 7.608-12.342.009.012 12.679-19.633L175.4 83.402l-19.716 31.895h-.034l-39.175 63.292h24.85l14.025-22.662 13.963 22.662 5.987 9.729 6.025-9.729 2.646-4.267c.396-.629 3.175-5.095 6.517-10.52l4.866-7.875 14.025 22.662h24.85l-26.47-42.746.033-.066Z" style="fill:url(#o)"/></g></g></g></g><defs><linearGradient id="c" x1="0" x2="1" y1="0" y2="0" gradientTransform="rotate(151.397 161.142 3.414) scale(397.398)" gradientUnits="userSpaceOnUse"><stop offset="0" style="stop-color:#ffb300;stop-opacity:1"/><stop offset="1" style="stop-color:#e02507;stop-opacity:1"/></linearGradient><linearGradient id="d" x1="0" x2="1" y1="0" y2="0" gradientTransform="rotate(151.397 192.663 127.067) scale(397.398)" gradientUnits="userSpaceOnUse"><stop offset="0" style="stop-color:#ffb300;stop-opacity:1"/><stop offset="1" style="stop-color:#e02507;stop-opacity:1"/></linearGradient><linearGradient id="e" x1="0" x2="1" y1="0" y2="0" gradientTransform="rotate(151.397 164.565 16.845) scale(397.398)" gradientUnits="userSpaceOnUse"><stop offset="0" style="stop-color:#ffb300;stop-opacity:1"/><stop offset="1" style="stop-color:#e02507;stop-opacity:1"/></linearGradient><linearGradient id="f" x1="0" x2="1" y1="0" y2="0" gradientTransform="rotate(151.397 196.087 140.499) scale(397.398)" gradientUnits="userSpaceOnUse"><stop offset="0" style="stop-color:#ffb300;stop-opacity:1"/><stop offset="1" style="stop-color:#e02507;stop-opacity:1"/></linearGradient><linearGradient id="g" x1="0" x2="1" y1="0" y2="0" gradientTransform="rotate(151.397 167.99 30.277) scale(397.398)" gradientUnits="userSpaceOnUse"><stop offset="0" style="stop-color:#ffb300;stop-opacity:1"/><stop offset="1" style="stop-color:#e02507;stop-opacity:1"/></linearGradient><linearGradient id="h" x1="0" x2="1" y1="0" y2="0" gradientTransform="rotate(151.397 199.511 153.93) scale(397.398)" gradientUnits="userSpaceOnUse"><stop offset="0" style="stop-color:#ffb300;stop-opacity:1"/><stop offset="1" style="stop-color:#e02507;stop-opacity:1"/></linearGradient><linearGradient id="i" x1="0" x2="1" y1="0" y2="0" gradientTransform="rotate(151.397 178.012 69.593) scale(397.398)" gradientUnits="userSpaceOnUse"><stop offset="0" style="stop-color:#ffb300;stop-opacity:1"/><stop offset="1" style="stop-color:#e02507;stop-opacity:1"/></linearGradient><linearGradient id="j" x1="0" x2="1" y1="0" y2="0" gradientTransform="rotate(151.397 195.2 137.017) scale(397.398)" gradientUnits="userSpaceOnUse"><stop offset="0" style="stop-color:#ffb300;stop-opacity:1"/><stop offset="1" style="stop-color:#e02507;stop-opacity:1"/></linearGradient><linearGradient id="k" x1="0" x2="1" y1="0" y2="0" gradientTransform="rotate(151.397 171.732 44.96) scale(397.398)" gradientUnits="userSpaceOnUse"><stop offset="0" style="stop-color:#ffb300;stop-opacity:1"/><stop offset="1" style="stop-color:#e02507;stop-opacity:1"/></linearGradient><linearGradient id="l" x1="0" x2="1" y1="0" y2="0" gradientTransform="rotate(151.397 188.92 112.384) scale(397.398)" gradientUnits="userSpaceOnUse"><stop offset="0" style="stop-color:#ffb300;stop-opacity:1"/><stop offset="1" style="stop-color:#e02507;stop-opacity:1"/></linearGradient><linearGradient id="m" x1="0" x2="1" y1="0" y2="0" gradientTransform="rotate(151.397 165.453 20.326) scale(397.398)" gradientUnits="userSpaceOnUse"><stop offset="0" style="stop-color:#ffb300;stop-opacity:1"/><stop offset="1" style="stop-color:#e02507;stop-opacity:1"/></linearGradient><linearGradient id="n" x1="0" x2="1" y1="0" y2="0" gradientTransform="rotate(151.397 182.641 87.751) scale(397.398)" gradientUnits="userSpaceOnUse"><stop offset="0" style="stop-color:#ffb300;stop-opacity:1"/><stop offset="1" style="stop-color:#e02507;stop-opacity:1"/></linearGradient><linearGradient id="o" x1="0" x2="1" y1="0" y2="0" gradientTransform="scale(306.234) rotate(-46.642 1.174 .192)" gradientUnits="userSpaceOnUse"><stop offset="0" style="stop-color:#e02507;stop-opacity:1"/><stop offset=".46" style="stop-color:#e94d05;stop-opacity:1"/><stop offset="1" style="stop-color:#ffb300;stop-opacity:1"/></linearGradient></defs></svg>