<svg xmlns="http://www.w3.org/2000/svg" xml:space="preserve" id="Layer_1" x="0" y="0" style="enable-background:new 0 0 643 107" version="1.1" viewBox="0 0 643 107"><style>.st0{fill:#fff}.st1{fill:#0084ea}</style><path d="M39.12 79.74V47.99c0-5.99 2.11-11.1 6.32-15.32 4.22-4.22 9.32-6.32 15.32-6.32 5.96 0 11.06 2.12 15.29 6.35l.66.66.61-.66c4.13-4.23 9.23-6.35 15.29-6.35 6.01 0 11.13 2.11 15.35 6.32 4.23 4.22 6.34 9.32 6.34 15.32v31.75h-11.48V47.99c0-2.81-1-5.21-3-7.19-2-1.98-4.4-2.97-7.21-2.97-2.81 0-5.22.99-7.21 2.97-2 1.98-3 4.38-3 7.19v31.75H70.87V47.99c0-2.81-.98-5.21-2.95-7.19-1.96-1.98-4.35-2.97-7.16-2.97-2.81 0-5.21.99-7.19 2.97-1.98 1.98-2.97 4.38-2.97 7.19v31.75H39.12z" class="st0"/><path d="M124.61 16.49v-1.17c.17-1.15.66-2.18 1.47-3.1 1.02-1.02 2.13-1.61 3.35-1.78.2-.07.54-.1 1.02-.1 1.32 0 2.52.47 3.61 1.4 1.08.93 1.73 2.06 1.93 3.38.07.34.1.68.1 1.02 0 1.39-.53 2.64-1.57 3.76-.78.95-1.86 1.54-3.25 1.78-.2.07-.54.1-1.02.1-1.39 0-2.61-.46-3.66-1.37-1.05-.91-1.68-2.05-1.88-3.4-.07-.08-.1-.24-.1-.52z" class="st1"/><path d="M124.61 64.35v-37.9h11.28c.13 0 .2.03.2.1v37.59c.2 1.22.77 2.22 1.7 3 .93.78 2.02 1.17 3.28 1.17v11.43h-.71c-3.45 0-6.66-1.23-9.63-3.68-2.96-2.46-4.82-5.36-5.56-8.71-.24-.75-.42-1.75-.56-3zM151.33 79.74V50.38c0-6.54 2.32-12.17 6.96-16.92 4.64-4.74 10.26-7.11 16.87-7.11 6.64 0 12.33 2.35 17.07 7.06 4.74 4.71 7.11 10.36 7.11 16.97v29.36h-11.48V50.28c-.07-3.42-1.33-6.35-3.78-8.79-2.46-2.44-5.39-3.66-8.81-3.66-3.42 0-6.35 1.22-8.79 3.66-2.44 2.44-3.66 5.37-3.66 8.79v29.46h-11.49z" class="st0"/><path d="M209.65 16.49v-1.17c.17-1.15.66-2.18 1.47-3.1 1.02-1.02 2.13-1.61 3.35-1.78.2-.07.54-.1 1.02-.1 1.32 0 2.52.47 3.61 1.4 1.08.93 1.73 2.06 1.93 3.38.07.34.1.68.1 1.02 0 1.39-.53 2.64-1.57 3.76-.78.95-1.86 1.54-3.25 1.78-.2.07-.54.1-1.02.1-1.39 0-2.61-.46-3.66-1.37-1.05-.91-1.68-2.05-1.88-3.4-.07-.08-.1-.24-.1-.52z" class="st1"/><path d="M209.65 64.35v-37.9h11.28c.13 0 .2.03.2.1v37.59c.2 1.22.77 2.22 1.7 3 .93.78 2.02 1.17 3.28 1.17v11.43h-.71c-3.45 0-6.66-1.23-9.63-3.68-2.96-2.46-4.82-5.36-5.56-8.71-.24-.75-.43-1.75-.56-3zM236.37 79.74V50.38c0-6.54 2.32-12.17 6.96-16.92 4.64-4.74 10.26-7.11 16.87-7.11 6.64 0 12.33 2.35 17.07 7.06 4.74 4.71 7.11 10.36 7.11 16.97v29.36H272.9V50.28c-.07-3.42-1.33-6.35-3.78-8.79-2.46-2.44-5.39-3.66-8.81-3.66-3.42 0-6.35 1.22-8.79 3.66-2.44 2.44-3.66 5.37-3.66 8.79v29.46h-11.49zM294.69 53.02c0-4.78 1.19-9.22 3.58-13.33 2.39-4.11 5.64-7.38 9.75-9.8 4.11-2.42 8.59-3.63 13.44-3.63 4.75 0 9.18 1.2 13.28 3.61 4.11 2.4 7.36 5.66 9.77 9.75 2.41 4.1 3.61 8.53 3.61 13.31V74c0 4.44-1.15 8.55-3.46 12.34-2.31 3.79-5.41 6.78-9.31 8.97-3.9 2.18-8.09 3.28-12.57 3.28V87.1c3.59 0 6.72-1.17 9.4-3.51 2.68-2.34 4.17-5.21 4.47-8.64-4.71 3.18-9.77 4.77-15.19 4.77-4.81 0-9.27-1.18-13.39-3.56-4.11-2.37-7.37-5.6-9.78-9.7-2.4-4.08-3.6-8.56-3.6-13.44zm15.95-10.8c-2.98 3-4.47 6.6-4.47 10.79 0 4.2 1.49 7.8 4.47 10.79 2.98 3 6.59 4.5 10.82 4.5 4.17 0 7.74-1.5 10.72-4.5 2.98-3 4.47-6.6 4.47-10.79 0-4.2-1.49-7.8-4.47-10.79-2.98-3-6.55-4.5-10.72-4.5-4.24.01-7.84 1.51-10.82 4.5zM387.55 79.74V50.38c0-6.54 2.32-12.17 6.96-16.92 4.64-4.74 10.26-7.11 16.87-7.11 6.64 0 12.33 2.35 17.07 7.06 4.74 4.71 7.11 10.36 7.11 16.97v29.36h-11.48V50.28c-.07-3.42-1.33-6.35-3.78-8.79-2.46-2.44-5.39-3.66-8.81-3.66-3.42 0-6.35 1.22-8.79 3.66-2.44 2.44-3.66 5.37-3.66 8.79v29.46h-11.49zM525.6 26.25h12.8c.58 1.22 1.48 3.04 2.72 5.46 1.24 2.42 2.14 4.24 2.72 5.46 1.79 3.45 4.44 8.67 7.92 15.65.07.17.19.41.36.71.17.3.29.54.36.71l.2.2c.07-.1.17-.27.3-.51.13-.24.24-.41.3-.51l.66-1.27c.07-.2.24-.58.51-1.12.07-.1.27-.49.61-1.17.07-.1.15-.29.25-.56.1-.27.19-.46.25-.56.2-.3.42-.69.66-1.17.13-.2.34-.58.61-1.12.07-.1.15-.3.25-.58.1-.29.19-.48.25-.58.07-.13.17-.32.3-.56.13-.24.24-.42.3-.56.07-.13.18-.33.33-.58.15-.25.26-.45.33-.58.13-.71.51-1.47 1.12-2.29.24-.47.46-.86.66-1.17.1-.37.27-.74.51-1.12.34-.68.54-1.07.61-1.17.27-.54.44-.91.51-1.12.24-.47.46-.86.66-1.17.27-.54.47-.91.61-1.12.27-.51.44-.93.51-1.27.13-.2.34-.58.61-1.12.2-.3.42-.69.66-1.17.07-.2.24-.58.51-1.12.07-.1.27-.49.61-1.17.07-.13.17-.32.3-.56.13-.24.24-.42.3-.56.17.17 1.42 2.59 3.76 7.26 2.3 4.54 5.67 11.16 10.11 19.86.07.14.17.27.3.41l.2-.2c.17-.37.42-.89.76-1.55s.54-1.04.61-1.14c.74-1.49 2.27-4.55 4.57-9.17 2.3-4.62 4.1-8.19 5.38-10.69 1.22-2.37 2.13-4.18 2.74-5.44H608c-1.22 2.47-2.12 4.28-2.69 5.44-9.89 19.71-15.85 31.53-17.88 35.46-.71 1.39-1.76 3.45-3.15 6.2a497.71 497.71 0 0 0-3.1 6.2c0 .14-.03.2-.1.2-.14-.07-.2-.17-.2-.3-.44-.74-1.63-3.03-3.56-6.86-1.15-2.2-2.86-5.55-5.13-10.03-2.27-4.49-3.98-7.85-5.13-10.08 0-.1-.08-.24-.25-.41-.03.03-.09.1-.15.2-.07.1-.12.17-.15.2-.27.61-.68 1.45-1.22 2.51-.54 1.07-.9 1.77-1.07 2.11-1.29 2.51-3.19 6.24-5.71 11.2-2.52 4.96-4.43 8.68-5.71 11.15 0 .07-.07.17-.2.3-.03 0-.07-.03-.1-.1s-.07-.1-.1-.1c-2.1-4.27-3.35-6.81-3.76-7.62-1.05-2.07-2.62-5.16-4.7-9.27-2.08-4.11-3.63-7.22-4.65-9.32-.98-2-2.48-4.99-4.5-8.97-2.02-3.98-3.53-6.98-4.55-9.02-.51-.98-1.27-2.49-2.29-4.52-1.02-2-1.8-3.53-2.35-4.54z" class="st0"/><path d="M523.97 53.47c-.45-.55-.88-1.14-1.3-1.78-3.76-5.77-2.49-9.92-5.41-14.98-1.47-2.55-3.52-4.48-5.57-5.89.5-1.62.68-3.32.52-5-.7-.07-1.43-.19-2.18-.34-6.74-1.42-8.78-5.26-14.41-6.77-2.84-.76-5.65-.68-8.1-.23-.8-1.5-1.86-2.83-3.16-3.9-.55.45-1.14.88-1.78 1.3-5.77 3.76-9.92 2.49-14.98 5.41-2.55 1.47-4.48 3.52-5.89 5.57-1.62-.5-3.32-.68-5-.52-.07.7-.19 1.43-.34 2.18-1.42 6.74-5.26 8.78-6.77 14.41-.76 2.84-.68 5.65-.23 8.1-1.5.8-2.83 1.86-3.9 3.16.45.55.88 1.14 1.3 1.78 3.76 5.77 2.49 9.92 5.41 14.98 1.47 2.55 3.52 4.48 5.57 5.89-.5 1.62-.68 3.32-.52 5 .7.07 1.43.19 2.18.34 6.74 1.42 8.78 5.26 14.41 6.77 2.84.76 5.65.68 8.1.23.8 1.5 1.86 2.83 3.16 3.9.55-.45 1.14-.88 1.78-1.3 5.77-3.76 9.92-2.49 14.98-5.41 2.55-1.47 4.48-3.52 5.89-5.57 1.62.5 3.32.68 5 .52.07-.7.19-1.43.34-2.18 1.42-6.74 5.26-8.78 6.77-14.41.76-2.84.68-5.65.23-8.1 1.5-.79 2.83-1.86 3.9-3.16zm-18.09-15.98c.76-.47 1.52-.95 2.28-1.44.03-.02.05-.03.08-.05.42-.27.84-.55 1.25-.83h-.01c.7-.94 1.29-1.95 1.73-3.01.79.87 1.49 1.83 2.06 2.87.8 1.44 1.35 3.05 1.39 4.7.03 1.65-.5 3.34-1.65 4.53-1.42 1.46-3.61 1.99-5.64 1.78-2.03-.21-3.93-1.07-5.73-2.03-1.04-.55-2.07-1.15-3.11-1.69 2.3-1.82 4.86-3.29 7.35-4.83zm-17.75-10.18c.2-.87.4-1.75.59-2.63.02-.08.03-.16.05-.23l.27-1.33h-.01c-.17-1.16-.47-2.29-.9-3.35 1.18.06 2.35.24 3.49.57 1.58.46 3.11 1.2 4.3 2.34s2.01 2.72 2.03 4.37c.03 2.04-1.15 3.96-2.73 5.24-1.58 1.29-3.54 2.03-5.49 2.62-1.13.34-2.27.65-3.39 1.01.34-2.91 1.12-5.76 1.79-8.61zm-22.21-2.04c1.44-.8 3.05-1.35 4.7-1.39 1.65-.03 3.34.5 4.53 1.65 1.46 1.42 1.99 3.61 1.78 5.64-.21 2.03-1.07 3.93-2.03 5.73-.55 1.04-1.15 2.07-1.69 3.11-1.82-2.3-3.28-4.87-4.82-7.36-.47-.76-.95-1.52-1.44-2.28-.04-.07-.09-.13-.13-.2-.25-.38-.5-.76-.75-1.13v.01c-.94-.7-1.95-1.29-3.01-1.73.86-.78 1.82-1.47 2.86-2.05zm-11.91 24.25c-1.16.17-2.29.47-3.35.9.06-1.18.24-2.35.57-3.49.46-1.58 1.2-3.11 2.34-4.3s2.72-2.01 4.37-2.03c2.04-.03 3.96 1.15 5.24 2.73 1.29 1.58 2.03 3.54 2.62 5.49.34 1.13.65 2.27 1.01 3.39-2.91-.34-5.76-1.12-8.61-1.79-.87-.2-1.75-.4-2.63-.59-.08-.02-.16-.03-.23-.05-.44-.09-.89-.18-1.33-.26zm9.55 20.65c-.76.47-1.52.95-2.28 1.44-.07.04-.13.09-.2.13-.38.25-.76.5-1.13.75h.01c-.7.94-1.29 1.95-1.73 3.01-.79-.87-1.49-1.83-2.06-2.87-.8-1.44-1.35-3.05-1.39-4.7-.03-1.65.5-3.34 1.65-4.53 1.42-1.46 3.61-1.99 5.64-1.78 2.03.21 3.93 1.07 5.73 2.03 1.04.55 2.07 1.15 3.11 1.69-2.3 1.82-4.86 3.28-7.35 4.83zm17.75 10.17c-.2.87-.4 1.75-.59 2.63-.01.03-.01.06-.02.09l-.3 1.47h.01c.17 1.16.47 2.29.9 3.35-1.18-.06-2.35-.24-3.49-.57-1.58-.46-3.11-1.2-4.3-2.34s-2.01-2.72-2.03-4.37c-.03-2.04 1.15-3.96 2.73-5.24 1.58-1.29 3.54-2.03 5.49-2.62 1.13-.34 2.27-.65 3.39-1.01-.34 2.91-1.12 5.76-1.79 8.61zm3.41-16.01c-5.8 0-10.51-4.7-10.51-10.51s4.7-10.51 10.51-10.51 10.51 4.7 10.51 10.51-4.71 10.51-10.51 10.51zm18.8 18.05c-1.44.8-3.05 1.35-4.7 1.39-1.65.03-3.34-.5-4.53-1.65-1.46-1.42-1.99-3.61-1.78-5.64.21-2.03 1.07-3.93 2.03-5.73.55-1.04 1.15-2.07 1.69-3.11 1.82 2.3 3.28 4.87 4.82 7.36.47.76.95 1.52 1.44 2.28.02.03.03.05.05.08.27.42.55.84.83 1.25v-.01c.94.7 1.95 1.29 3.01 1.73-.86.78-1.82 1.48-2.86 2.05zm14.69-21.66c-.46 1.58-1.2 3.11-2.34 4.3s-2.72 2.01-4.37 2.03c-2.04.03-3.96-1.15-5.24-2.73-1.29-1.58-2.03-3.54-2.62-5.49-.34-1.13-.65-2.27-1.01-3.39 2.91.34 5.76 1.12 8.61 1.79.87.2 1.75.4 2.63.59.03.01.06.01.09.02l1.47.3v-.01c1.16-.17 2.29-.47 3.35-.9-.06 1.18-.24 2.35-.57 3.49z" class="st1"/><circle cx="484.72" cy="53.83" r="7.15" class="st1"/></svg>