<?xml version="1.0" encoding="UTF-8" standalone="no"?>
<!-- Created with Inkscape (http://www.inkscape.org/) -->

<svg
   width="2048"
   height="2048"
   viewBox="0 0 2048 2048"
   version="1.1"
   id="svg1"
   inkscape:export-filename="favicon.png"
   inkscape:export-xdpi="96"
   inkscape:export-ydpi="96"
   xmlns:inkscape="http://www.inkscape.org/namespaces/inkscape"
   xmlns:sodipodi="http://sodipodi.sourceforge.net/DTD/sodipodi-0.dtd"
   xmlns="http://www.w3.org/2000/svg"
   xmlns:svg="http://www.w3.org/2000/svg">
  <sodipodi:namedview
     id="namedview1"
     pagecolor="#ffffff"
     bordercolor="#000000"
     borderopacity="0.25"
     inkscape:showpageshadow="2"
     inkscape:pageopacity="0.0"
     inkscape:pagecheckerboard="true"
     inkscape:deskcolor="#d1d1d1"
     inkscape:document-units="mm"
     showgrid="true">
    <inkscape:grid
       id="grid1"
       units="mm"
       originx="0"
       originy="0"
       spacingx="3.7795276"
       spacingy="3.7795276"
       empcolor="#0099e5"
       empopacity="0.30196078"
       color="#0099e5"
       opacity="0.14901961"
       empspacing="5"
       enabled="true"
       visible="true" />
    <inkscape:page
       x="0"
       y="0"
       width="2048"
       height="2048"
       id="page2"
       margin="0"
       bleed="0" />
  </sodipodi:namedview>
  <defs
     id="defs1" />
  <g
     inkscape:label="Layer 1"
     inkscape:groupmode="layer"
     id="layer1">
    <rect
       style="fill:#eeeeee;fill-opacity:1"
       id="rect2"
       width="2104.3496"
       height="2115.6633"
       x="-22.627424"
       y="-39.597969" />
    <circle
       style="fill:#f9f9f9;fill-opacity:1"
       id="path2"
       cx="1024"
       cy="1024"
       r="989.94946" />
    <path
       style="fill:#000000;stroke-width:5.36129"
       d="m 964.00888,1782.9985 c -103.2757,-12.013 -195.9812,-49.8504 -284.0684,-115.9407 -84.8576,-63.6666 -160.09008,-169.0401 -192.42622,-269.5195 -22.73834,-70.6539 -24.62767,-93.2479 -27.23379,-325.699 l -2.53965,-226.5147 h 50.85031 c 41.42246,0 51.45292,1.5719 54.10407,8.4805 1.78961,4.6643 3.25432,103.1256 3.25432,218.8031 0,194.2243 0.8369,213.5809 10.93816,252.8829 48.5161,188.7733 209.3963,330.1096 398.2266,349.85 140.64722,14.7033 268.56732,-29.172 369.69532,-126.8028 63.2519,-61.0653 101.9339,-129.0985 125.109,-220.0439 l 12.8131,-50.2799 V 825.8727 373.53027 H 1238.7926 994.85358 v 182.14101 182.14155 l 103.20482,101.54037 103.205,101.5403 1.4358,-131.8708 1.4362,-131.87081 -15.5793,-16.43829 c -35.1985,-37.13826 -42.743,-83.03633 -20.8008,-126.54863 9.6884,-19.21383 18.1989,-26.98877 43.242,-39.50474 29.342,-14.6653 32.7705,-15.2159 58.1964,-9.34688 14.8595,3.42963 34.0566,11.24855 42.6599,17.37489 46.6964,33.25077 49.5765,122.43384 5.2483,162.52349 -11.2212,10.14787 -11.2937,12.09509 -11.3724,305.59407 -0.086,325.8689 -0.828,334.6549 -33.4198,396.7463 -21.8939,41.7097 -77.9409,97.842 -119.2979,119.4796 -84.2318,44.0688 -193.21472,46.1507 -281.46812,5.3781 -71.1375,-32.8654 -133.0701,-106.8154 -153.5406,-183.3329 -4.6038,-17.2087 -7.1944,-58.5904 -7.2351,-115.5761 l -0.064,-88.7698 -24.4486,-17.2329 c -30.6152,-21.5792 -41.8825,-46.4792 -38.6534,-85.4199 4.0087,-48.3401 38.9391,-81.6955 85.5535,-81.6955 49.9582,0 85.398,30.1413 93.2619,79.3184 3.3096,20.6955 12.0538,30.6488 107.464,122.319 l 103.86172,99.7899 v 95.906 c 0,57.8716 2.0464,95.9062 5.1598,95.9062 17.5373,0 68.0439,-25.6415 90.7909,-46.0926 52.2822,-47.0057 64.4851,-80.7798 68.6567,-190.0158 l 2.9772,-77.9495 -158.7036,-155.267 -158.70352,-155.2664 1.1935,-262.70361 1.1934,-262.70365 349.97592,-1.37945 349.9758,-1.37894 -1.5655,526.78625 -1.565,526.7868 -12.3603,42.6855 c -51.0488,176.2903 -145.8226,295.1088 -296.6322,371.8908 -96.292,49.0253 -201.4294,67.0934 -314.12802,53.9839 z m -26.9244,-447.1328 c -0.7179,-53.5921 -2.3654,-65.0304 -10.4116,-72.2799 -5.2568,-4.7373 -33.3591,-31.4221 -62.4485,-59.2997 l -52.8897,-50.6868 2.7117,58.9743 c 3.2463,70.6045 12.694,100.1329 43.0824,134.6563 23.0192,26.151 66.33,57.1291 75.5675,54.05 3.0865,-1.0288 4.89,-27.9205 4.3882,-65.4142 z"
       id="path1"
       sodipodi:nodetypes="sssscssssssscccccccccccsssssssssssscssssscsssscccccccccssssssscssss" />
  </g>
</svg>
