<?xml version="1.0" encoding="UTF-8" standalone="no"?>
<!-- Created with Inkscape (http://www.inkscape.org/) -->

<svg
   width="2048"
   height="648"
   viewBox="0 0 2048 648"
   version="1.1"
   id="svg1"
   xmlns="http://www.w3.org/2000/svg"
   xmlns:svg="http://www.w3.org/2000/svg">
  <defs
     id="defs1">
    <rect
       x="1550.5212"
       y="1316.8271"
       width="503.87018"
       height="45.807999"
       id="rect8" />
  </defs>
  <g
     id="layer1">
    <g
       id="g9"
       transform="matrix(3.1880952,0,0,3.1880952,-4446.4293,-3635.3157)">
      <path
         style="fill:#000000;stroke-width:0.502788"
         d="m 1467.1422,1313.086 c -9.6853,-1.1265 -18.3793,-4.675 -26.6402,-10.873 -7.958,-5.9707 -15.0134,-15.8528 -18.0459,-25.2758 -2.1324,-6.626 -2.3096,-8.7449 -2.554,-30.5444 l -0.2382,-21.2428 h 4.7688 c 3.8847,0 4.8253,0.1474 5.0739,0.7954 0.1679,0.4374 0.3052,9.6712 0.3052,20.5195 0,18.2146 0.079,20.0298 1.0258,23.7156 4.5499,17.7034 19.6375,30.958 37.3461,32.8093 13.19,1.3789 25.1865,-2.7357 34.6704,-11.8917 5.9318,-5.7268 9.5595,-12.1069 11.7329,-20.6359 l 1.2016,-4.7153 v -42.4211 -42.4211 h -22.8768 -22.8769 v 17.0813 17.0815 l 9.6786,9.5225 9.6787,9.5226 0.1347,-12.367 0.1346,-12.3669 -1.461,-1.5417 c -3.3009,-3.4828 -4.0085,-7.7872 -1.9508,-11.8678 0.9087,-1.8019 1.7068,-2.531 4.0554,-3.7048 2.7516,-1.3753 3.0732,-1.4269 5.4576,-0.8765 1.3936,0.3216 3.194,1.0548 4.0008,1.6293 4.3792,3.1183 4.6493,11.482 0.4921,15.2417 -1.0523,0.9517 -1.0591,1.1343 -1.0664,28.6589 -0.011,30.5603 -0.078,31.3842 -3.1342,37.2072 -2.0532,3.9117 -7.3093,9.1758 -11.1879,11.205 -7.8993,4.1328 -18.1198,4.328 -26.3964,0.5043 -6.6712,-3.0822 -12.4793,-10.0172 -14.3992,-17.1931 -0.4316,-1.6138 -0.6746,-5.4947 -0.6784,-10.8389 l -0.011,-8.3248 -2.2929,-1.6161 c -2.8711,-2.0238 -3.9277,-4.359 -3.625,-8.0109 0.376,-4.5333 3.6518,-7.6614 8.0234,-7.6614 4.685,0 8.0087,2.8267 8.7461,7.4385 0.3104,1.9409 1.1304,2.8743 10.0781,11.4712 l 9.7402,9.3584 v 8.9941 c 0,5.4273 0.192,8.9943 0.4839,8.9943 1.6447,0 6.3813,-2.4047 8.5145,-4.3227 4.9031,-4.4082 6.0475,-7.5756 6.4387,-17.8198 l 0.2793,-7.3102 -14.8835,-14.5611 -14.8833,-14.561 0.1119,-24.6366 0.1119,-24.6367 32.821,-0.1293 32.8212,-0.1294 -0.1469,49.4026 -0.1467,49.4025 -1.1592,4.0032 c -4.7874,16.5327 -13.6754,27.6756 -27.8184,34.8762 -9.0305,4.5977 -18.8903,6.2922 -29.4593,5.0627 z m -2.5249,-41.9325 c -0.067,-5.0259 -0.2219,-6.0987 -0.9765,-6.7785 -0.493,-0.4442 -3.1284,-2.9468 -5.8564,-5.5612 l -4.9601,-4.7534 0.2543,5.5306 c 0.3045,6.6214 1.1905,9.3906 4.0403,12.6282 2.1588,2.4525 6.2205,5.3576 7.0868,5.0688 0.2894,-0.097 0.4586,-2.6183 0.4116,-6.1345 z"
         id="path1-2" />
      <g
         id="g8"
         transform="translate(0,-9.0329716)">
        <text
           xml:space="preserve"
           style="font-style:normal;font-variant:normal;font-weight:600;font-stretch:normal;font-size:85.7356px;font-family:'JetBrains Mono';-inkscape-font-specification:'JetBrains Mono, Semi-Bold';font-variant-ligatures:discretionary-ligatures;font-variant-caps:normal;font-variant-numeric:normal;font-variant-east-asian:normal;text-align:center;writing-mode:lr-tb;direction:ltr;text-anchor:middle;fill:#000000;stroke-width:1.00578"
           x="1773.98"
           y="1258.4124"
           id="text4"
           transform="scale(1.0057782,0.99425501)"><tspan
             id="tspan4"
             x="1773.98"
             y="1258.4124"
             style="font-style:normal;font-variant:normal;font-weight:bold;font-stretch:normal;font-size:85.7356px;font-family:'JetBrains Mono';-inkscape-font-specification:'JetBrains Mono Bold';stroke-width:1.00578">JHUANGNYC</tspan></text>
        <text
           xml:space="preserve"
           id="text8"
           style="font-style:normal;font-variant:normal;font-weight:normal;font-stretch:normal;font-size:30.112px;font-family:Inter;-inkscape-font-specification:'Inter, @opsz=32';font-variant-ligatures:discretionary-ligatures;font-variant-caps:normal;font-variant-numeric:normal;font-variant-east-asian:normal;font-variation-settings:'opsz' 32;text-align:center;writing-mode:lr-tb;direction:ltr;white-space:pre;shape-inside:url(#rect8);fill:#000000"
           transform="translate(-19.997015,-45.242789)"><tspan
             x="1570.9371"
             y="1344.7012"
             id="tspan3"><tspan
               style="font-weight:600;-inkscape-font-specification:'Inter Semi-Bold'"
               id="tspan1">Premium Crypto Mining Hardware</tspan></tspan></text>
      </g>
    </g>
  </g>
</svg>
